#!OML:ASF F:\VICON\USERDATA\INSTALL\rory3\rory3.ASF
:FULLY-SPECIFIED
:DEGREES
324
root 14.56 18.0211 14.5296 299.167 86.6322 303.282
lowerback 11.364 2.82978 2.33818
upperback 0.465448 4.14314 0.744456
thorax -5.76917 1.99732 -1.1995
lowerneck -21.1513 -5.0062 -10.9295
upperneck 29.8122 -4.692 5.79248
head 14.1835 -2.30041 3.38992
rclavicle -2.14004e-015 -1.02374e-014
rhumerus -29.8837 -14.7242 -79.7126
rradius 27.1107
rwrist 7.54029
rhand -15.4302 8.12666
rfingers 7.12502
rthumb 10.7498 -21.5783
lclavicle -2.14004e-015 -1.02374e-014
lhumerus -35.9596 5.14798 83.4624
lradius 29.1118
lwrist -5.69198
lhand -17.8409 27.158
lfingers 7.12502
lthumb 8.4239 56.97
rfemur 2.23941 -1.76312 27.268
rtibia 19.4855
rfoot -13.6389 1.5665
rtoes 2.17253
lfemur -21.2531 0.171537 -16.948
ltibia 60.0818
lfoot -1.54183 -4.77916
ltoes -3.8908
325
root 14.6822 18.0024 14.5408 299.88 86.7156 303.961
lowerback 11.4787 2.88127 2.30196
upperback 0.458538 4.20549 0.668799
thorax -5.83537 2.02633 -1.27509
lowerneck -21.3253 -5.04169 -11.0253
upperneck 29.9238 -4.74136 5.94715
head 14.2834 -2.30991 3.46352
rclavicle 1.25328e-014 -1.04362e-014
rhumerus -29.5122 -14.3741 -79.9226
rradius 27.4768
rwrist 7.42281
rhand -15.5401 8.26763
rfingers 7.12502
rthumb 10.6438 -21.4428
lclavicle 1.25328e-014 -1.04362e-014
lhumerus -36.0771 5.3997 83.2923
lradius 29.0459
lwrist -5.51311
lhand -17.8846 27.4081
lfingers 7.12502
lthumb 8.38172 57.2218
rfemur 2.50984 -1.79666 27.2136
rtibia 19.734
rfoot -14.0293 1.55766
rtoes 3.76143
lfemur -21.8602 0.209417 -17.1152
ltibia 58.5904
lfoot -2.00833 -4.22056
ltoes -5.67846
326
root 14.7975 17.9829 14.5495 295.85 86.375 299.632
lowerback 11.4261 2.86372 2.8217
upperback 0.358373 4.25037 0.680313
thorax -5.87379 2.03224 -1.55987
lowerneck -21.3654 -5.0205 -10.8963
upperneck 29.7644 -4.75686 5.93964
head 14.2179 -2.30285 3.42969
rclavicle 5.12492e-014 1.59028e-015
rhumerus -29.1902 -13.7542 -80.2957
rradius 27.9947
rwrist 6.91997
rhand -15.6918 8.1919
rfingers 7.12502
rthumb 10.4975 -21.526
lclavicle 5.12492e-014 1.59028e-015
lhumerus -36.1964 5.55744 83.0144
lradius 29.0218
lwrist -5.46384
lhand -17.867 27.313
lfingers 7.12502
lthumb 8.39865 57.126
rfemur 2.55653 -1.9675 27.7322
rtibia 19.7306
rfoot -14.2151 1.76655
rtoes 5.63342
lfemur -22.7948 0.105702 -16.6832
ltibia 57.0729
lfoot -2.32084 -3.47986
ltoes -5.51479
327
root 14.9182 17.966 14.5513 296.585 85.7951 300.134
lowerback 11.3678 2.96045 3.41562
upperback 0.287827 4.46055 0.752642
thorax -5.86809 2.11938 -1.84618
lowerneck -21.3242 -5.02559 -10.8438
upperneck 29.5411 -4.76916 5.86959
head 14.1085 -2.31294 3.3821
rclavicle -5.57933e-014 -1.10325e-014
rhumerus -28.7712 -13.259 -80.5039
rradius 28.3328
rwrist 6.59841
rhand -15.5679 8.46238
rfingers 7.12502
rthumb 10.617 -21.2494
lclavicle -5.57933e-014 -1.10325e-014
lhumerus -36.3233 5.99933 82.7371
lradius 28.9291
lwrist -5.71658
lhand -17.7174 26.8331
lfingers 7.12502
lthumb 8.54309 56.6403
rfemur 2.80093 -1.8882 28.273
rtibia 19.6281
rfoot -14.4876 1.97779
rtoes 5.53802
lfemur -23.454 0.341208 -16.1668
ltibia 55.3811
lfoot -2.70606 -2.72994
ltoes -4.66179
328
root 15.0469 17.954 14.556 296.595 85.4135 299.983
lowerback 11.2815 3.01564 3.81181
upperback 0.26504 4.58752 0.82861
thorax -5.8132 2.17327 -2.00155
lowerneck -21.2101 -4.99375 -10.8651
upperneck 29.2396 -4.67828 5.71425
head 13.94 -2.29949 3.32983
rclavicle 3.91482e-014 1.49089e-015
rhumerus -28.2471 -12.0325 -81.0402
rradius 28.8325
rwrist 4.57524
rhand -16.2842 7.79485
rfingers 7.12502
rthumb 9.92595 -21.9511
lclavicle 3.91482e-014 1.49089e-015
lhumerus -36.4355 6.63397 82.5312
lradius 28.649
lwrist -6.33316
lhand -18.4007 26.7577
lfingers 7.12502
lthumb 7.88364 56.5907
rfemur 3.25578 -1.70996 28.6561
rtibia 19.3754
rfoot -14.7566 1.70572
rtoes 4.72167
lfemur -23.9323 0.625901 -15.8139
ltibia 53.5199
lfoot -3.07045 -2.11213
ltoes -4.08059
329
root 15.1785 17.9457 14.5632 295.939 85.2197 299.28
lowerback 11.2943 3.04352 4.00864
upperback 0.276251 4.6542 0.87488
thorax -5.79332 2.20231 -2.07298
lowerneck -21.2115 -5.01197 -11.0449
upperneck 29.1393 -4.69429 5.87792
head 13.9095 -2.30432 3.42119
rclavicle -1.09953e-015 1.73937e-014
rhumerus -27.879 -11.8129 -81.1338
rradius 29.1241
rwrist 4.79833
rhand -16.2364 7.96742
rfingers 7.12502
rthumb 9.97208 -21.7764
lclavicle -1.09953e-015 1.73937e-014
lhumerus -36.6032 6.85986 82.4784
lradius 28.4854
lwrist -6.98585
lhand -19.3555 27.2018
lfingers 7.12502
lthumb 6.96203 57.0673
rfemur 3.91447 -1.56555 28.9027
rtibia 18.9677
rfoot -15.0177 1.13263
rtoes 3.49501
lfemur -24.1884 0.619515 -15.6449
ltibia 51.4465
lfoot -3.36683 -1.29053
ltoes -4.61861
330
root 15.3108 17.9416 14.5721 296.706 85.2667 299.97
lowerback 11.2775 3.10667 3.90899
upperback 0.265163 4.72057 0.823006
thorax -5.79505 2.23639 -2.08105
lowerneck -21.3627 -5.07159 -11.2342
upperneck 29.2339 -4.78475 6.14765
head 14.007 -2.32645 3.54929
rclavicle -4.68945e-014 -1.68967e-014
rhumerus -27.6027 -11.9947 -81.1154
rradius 29.3523
rwrist 5.87981
rhand -16.0681 8.52235
rfingers 7.12502
rthumb 10.1345 -21.2136
lclavicle -4.68945e-014 -1.68967e-014
lhumerus -36.7553 6.68635 82.4588
lradius 28.5712
lwrist -7.18976
lhand -19.0454 28.3364
lfingers 7.12502
lthumb 7.26129 58.1918
rfemur 4.5763 -1.56325 28.8539
rtibia 18.4309
rfoot -15.1333 0.71258
rtoes 2.50542
lfemur -24.355 0.223724 -15.7774
ltibia 49.1909
lfoot -3.57611 -0.120784
ltoes -5.67964
